#!OML:ASF E:\Style4\Style4.ASF
:FULLY-SPECIFIED
:DEGREES
3154
root -0.289905 17.8022 -2.12586 -0.248252 -0.0929017 3.74702
lowerback 9.32008 2.52431 -1.94065
upperback 5.39055 3.19591 -0.0707312
thorax 0.271069 1.55909 0.728727
lowerneck -0.821377 -5.06533 -6.40595
upperneck 17.64 -6.86119 2.7187
head 5.78388 -3.54817 1.54396
rclavicle -2.5842e-015 3.97569e-016
rhumerus 16.9733 15.6244 -66.1785
rradius 79.1028
rwrist 21.0144
rhand -33.3463 24.8429
rfingers 7.12502
rthumb -6.5485 -5.03582
lclavicle -2.5842e-015 3.97569e-016
lhumerus 15.0383 -18.5069 68.748
lradius 82.4795
lwrist -13.6918
lhand -27.2307 28.9108
lfingers 7.12502
lthumb -0.642929 58.8896
rfemur -16.0661 2.11702 15.3276
rtibia 33.1415
rfoot -16.6172 -12.1588
rtoes -6.78863
lfemur -14.7155 -0.382083 -21.6102
ltibia 30.5826
lfoot -14.088 7.68202
ltoes -18.2867
3155
root -0.28495 17.7965 -2.1354 -0.249331 -0.218913 3.74672
lowerback 9.41305 2.5135 -1.91157
upperback 5.39247 3.18098 -0.0902387
thorax 0.225288 1.55271 0.689666
lowerneck -0.781524 -5.03247 -6.40331
upperneck 17.6188 -6.81735 2.7081
head 5.76783 -3.52791 1.54421
rclavicle -6.95746e-015 -4.37326e-015
rhumerus 17.2195 15.6783 -66.1543
rradius 78.6059
rwrist 20.923
rhand -33.4779 24.8539
rfingers 7.12502
rthumb -6.67553 -5.0209
lclavicle -6.95746e-015 -4.37326e-015
lhumerus 15.1974 -18.4019 68.6976
lradius 82.3496
lwrist -13.7752
lhand -27.295 28.8254
lfingers 7.12502
lthumb -0.704965 58.804
rfemur -16.1782 2.13183 15.3167
rtibia 33.2232
rfoot -16.5734 -12.1218
rtoes -7.20515
lfemur -14.8007 -0.357033 -21.618
ltibia 30.7207
lfoot -14.1752 7.78083
ltoes -18.5693
3156
root -0.283912 17.7903 -2.14656 -0.23944 -0.342019 3.5954
lowerback 9.50467 2.49994 -1.77629
upperback 5.39219 3.17121 -0.0661889
thorax 0.180742 1.55051 0.635756
lowerneck -0.756886 -5.01159 -6.40137
upperneck 17.6048 -6.79348 2.72543
head 5.75847 -3.51548 1.55161
rclavicle -3.97569e-015 -6.75868e-015
rhumerus 17.4515 15.7367 -66.1427
rradius 78.1573
rwrist 20.7982
rhand -33.6094 24.9747
rfingers 7.12502
rthumb -6.80255 -4.89604
lclavicle -3.97569e-015 -6.75868e-015
lhumerus 15.3007 -18.3325 68.635
lradius 82.2273
lwrist -13.8521
lhand -27.6005 28.698
lfingers 7.12502
lthumb -1.00009 58.6754
rfemur -16.3052 2.27199 15.4985
rtibia 33.2817
rfoot -16.469 -12.1893
rtoes -7.53163
lfemur -14.9255 -0.311285 -21.4401
ltibia 30.8733
lfoot -14.255 7.86881
ltoes -18.8824
3157
root -0.282506 17.7862 -2.15312 -0.252843 -0.444067 3.44593
lowerback 9.58501 2.48962 -1.65869
upperback 5.39921 3.1651 -0.032689
thorax 0.148447 1.54949 0.601803
lowerneck -0.765987 -5.01149 -6.39383
upperneck 17.6014 -6.79524 2.73522
head 5.75901 -3.51532 1.55312
rclavicle -1.61016e-014 3.57812e-015
rhumerus 17.5917 15.7882 -66.1321
rradius 77.7907
rwrist 20.7407
rhand -33.6677 25.0946
rfingers 7.12502
rthumb -6.85878 -4.77434
lclavicle -1.61016e-014 3.57812e-015
lhumerus 15.3982 -18.2622 68.598
lradius 82.1506
lwrist -13.9549
lhand -27.7884 28.7412
lfingers 7.12502
lthumb -1.18159 58.7177
rfemur -16.367 2.35288 15.675
rtibia 33.3307
rfoot -16.4138 -12.206
rtoes -7.71213
lfemur -15.0032 -0.274391 -21.2688
ltibia 31.0238
lfoot -14.3576 7.89556
ltoes -18.7916
3158
root -0.277768 17.7841 -2.15716 -0.241937 -0.542757 3.35707
lowerback 9.63737 2.49605 -1.55068
upperback 5.39666 3.18095 -0.0227069
thorax 0.121861 1.55959 0.547888
lowerneck -0.741063 -5.02987 -6.38475
upperneck 17.5681 -6.82113 2.73073
head 5.7451 -3.52777 1.54961
rclavicle -2.21645e-014 3.57812e-015
rhumerus 17.631 15.7929 -66.1321
rradius 77.5174
rwrist 20.71
rhand -33.6672 25.1601
rfingers 7.12502
rthumb -6.85832 -4.70886
lclavicle -2.21645e-014 3.57812e-015
lhumerus 15.4897 -18.2762 68.5617
lradius 82.0981
lwrist -14.0077
lhand -27.9177 28.678
lfingers 7.12502
lthumb -1.30644 58.6538
rfemur -16.4352 2.39203 15.76
rtibia 33.3655
rfoot -16.3719 -12.1732
rtoes -7.67497
lfemur -15.0953 -0.266205 -21.1837
ltibia 31.1576
lfoot -14.431 7.93842
ltoes -18.688
3159
root -0.274507 17.7825 -2.16148 -0.206421 -0.661694 3.3563
lowerback 9.64538 2.51877 -1.56402
upperback 5.39739 3.2095 -0.0262884
thorax 0.117169 1.57355 0.548552
lowerneck -0.78037 -5.05607 -6.39879
upperneck 17.6361 -6.85042 2.70368
head 5.7744 -3.54443 1.53989
rclavicle -1.56046e-014 6.75868e-015
rhumerus 17.6524 15.8196 -66.1271
rradius 77.2937
rwrist 20.7401
rhand -33.8036 25.1424
rfingers 7.12502
rthumb -6.99002 -4.72215
lclavicle -1.56046e-014 6.75868e-015
lhumerus 15.5756 -18.3299 68.5253
lradius 82.0612
lwrist -13.924
lhand -28.192 28.4776
lfingers 7.12502
lthumb -1.57134 58.4515
rfemur -16.5499 2.4368 15.7491
rtibia 33.4135
rfoot -16.3755 -12.0962
rtoes -7.51365
lfemur -15.1918 -0.23594 -21.1951
ltibia 31.2431
lfoot -14.4888 7.98426
ltoes -18.2848
3160
root -0.272005 17.7799 -2.16479 -0.213686 -0.736472 3.32611
lowerback 9.67636 2.52865 -1.55939
upperback 5.42358 3.22248 -0.00945169
thorax 0.126501 1.57964 0.561376
lowerneck -0.781318 -5.08025 -6.44057
upperneck 17.6564 -6.88223 2.71215
head 5.78446 -3.56197 1.5471
rclavicle 3.48867e-014 -1.82882e-014
rhumerus 17.671 15.8365 -66.0949
rradius 77.1718
rwrist 20.6671
rhand -33.7447 25.1154
rfingers 7.12502
rthumb -6.93315 -4.7511
lclavicle 3.48867e-014 -1.82882e-014
lhumerus 15.6751 -18.3381 68.5435
lradius 82.0163
lwrist -13.9366
lhand -28.3036 28.106
lfingers 7.12502
lthumb -1.67915 58.0792
rfemur -16.6109 2.46677 15.7722
rtibia 33.4873
rfoot -16.4251 -12.0124
rtoes -7.32889
lfemur -15.2101 -0.195341 -21.1751
ltibia 31.2856
lfoot -14.5278 7.98628
ltoes -17.9807
3161
root -0.268018 17.777 -2.16641 -0.226307 -0.773591 3.35518
lowerback 9.69593 2.53604 -1.57828
upperback 5.4592 3.23045 -0.022001
thorax 0.152434 1.58306 0.558345
lowerneck -0.730028 -5.10743 -6.47967
upperneck 17.5803 -6.92714 2.76731
head 5.75731 -3.58288 1.57003
rclavicle -5.66536e-015 1.11319e-014
rhumerus 17.6293 15.7931 -66.1058
rradius 77.1741
rwrist 20.4136
rhand -33.3253 25.0632
rfingers 7.12502
rthumb -6.52829 -4.81621
lclavicle -5.66536e-015 1.11319e-014
lhumerus 15.7645 -18.3641 68.5395
lradius 81.9973
lwrist -14.044
lhand -28.2345 27.8444
lfingers 7.12502
lthumb -1.61242 57.818
rfemur -16.6508 2.42146 15.7253
rtibia 33.5727
rfoot -16.4506 -11.9325
rtoes -7.4361
lfemur -15.2076 -0.169846 -21.224
ltibia 31.3211
lfoot -14.5257 8.03799
ltoes -18.5198
3162
root -0.264108 17.7737 -2.16815 -0.249707 -0.849837 3.44352
lowerback 9.7447 2.54678 -1.68708
upperback 5.48115 3.23459 -0.0399922
thorax 0.143967 1.58295 0.598473
lowerneck -0.659214 -5.11607 -6.51394
upperneck 17.5151 -6.94139 2.77676
head 5.72714 -3.59182 1.5802
rclavicle 3.37934e-015 -2.38542e-015
rhumerus 17.5696 15.847 -66.0828
rradius 77.1981
rwrist 20.1373
rhand -32.9997 24.9621
rfingers 7.12502
rthumb -6.21396 -4.92672
lclavicle 3.37934e-015 -2.38542e-015
lhumerus 15.7715 -18.4033 68.4966
lradius 82.0416
lwrist -14.1659
lhand -28.2858 27.8207
lfingers 7.12502
lthumb -1.66197 57.794
rfemur -16.695 2.42407 15.6135
rtibia 33.658
rfoot -16.487 -11.8663
rtoes -7.44605
lfemur -15.1795 -0.170081 -21.3354
ltibia 31.3489
lfoot -14.5892 8.11919
ltoes -18.7197
3163
root -0.259409 17.7707 -2.17039 -0.236936 -0.939123 3.44294
lowerback 9.75004 2.56155 -1.69123
upperback 5.49193 3.25362 -0.0356434
thorax 0.151368 1.59213 0.603474
lowerneck -0.637049 -5.12544 -6.49431
upperneck 17.5387 -6.94626 2.70933
head 5.72822 -3.59746 1.55602
rclavicle 3.77691e-015 -7.95139e-015
rhumerus 17.4856 15.9419 -66.0186
rradius 77.2204
rwrist 19.9297
rhand -32.8793 24.74
rfingers 7.12502
rthumb -6.09765 -5.15226
lclavicle 3.77691e-015 -7.95139e-015
lhumerus 15.7654 -18.4993 68.4932
lradius 82.0957
lwrist -14.1942
lhand -28.3561 27.9249
lfingers 7.12502
lthumb -1.72986 57.8976
rfemur -16.7761 2.41886 15.5959
rtibia 33.7378
rfoot -16.5 -11.7962
rtoes -7.5035
lfemur -15.1937 -0.159554 -21.3472
ltibia 31.3639
lfoot -14.7421 8.16299
ltoes -18.4259
3164
root -0.255818 17.7678 -2.17083 -0.221421 -1.02138 3.41462
lowerback 9.72895 2.56843 -1.69432
upperback 5.51336 3.26322 -0.00764332
thorax 0.183132 1.59608 0.634679
lowerneck -0.635636 -5.13003 -6.47137
upperneck 17.5207 -6.94028 2.62447
head 5.71854 -3.59841 1.52628
rclavicle -2.5842e-015 3.97569e-015
rhumerus 17.3927 16.0528 -65.9729
rradius 77.3043
rwrist 19.7624
rhand -32.7357 24.5045
rfingers 7.12502
rthumb -5.95907 -5.39169
lclavicle -2.5842e-015 3.97569e-015
lhumerus 15.7105 -18.5692 68.5004
lradius 82.1809
lwrist -14.1613
lhand -28.3935 27.9044
lfingers 7.12502
lthumb -1.76593 57.8769
rfemur -16.8486 2.41438 15.6164
rtibia 33.8029
rfoot -16.5207 -11.7464
rtoes -7.64064
lfemur -15.2016 -0.170788 -21.3264
ltibia 31.3777
lfoot -14.9322 8.16146
ltoes -17.7088
3165
root -0.252488 17.7646 -2.1712 -0.21724 -1.07682 3.41592
lowerback 9.72506 2.5757 -1.72453
upperback 5.53741 3.27078 0.0175086
thorax 0.207023 1.59852 0.677548
lowerneck -0.61218 -5.13876 -6.4802
upperneck 17.4799 -6.94483 2.57728
head 5.70088 -3.60414 1.51366
rclavicle 1.98785e-014 2.38542e-015
rhumerus 17.2898 16.1867 -65.8933
rradius 77.363
rwrist 19.6394
rhand -32.825 24.3035
rfingers 7.12502
rthumb -6.04526 -5.59027
lclavicle 1.98785e-014 2.38542e-015
lhumerus 15.6914 -18.6604 68.4953
lradius 82.239
lwrist -14.1295
lhand -28.4556 27.8071
lfingers 7.12502
lthumb -1.82591 57.779
rfemur -16.8947 2.43862 15.6031
rtibia 33.8448
rfoot -16.5063 -11.7341
rtoes -7.81396
lfemur -15.2053 -0.230571 -21.3259
ltibia 31.4025
lfoot -15.1041 8.07608
ltoes -16.6358
3166
root -0.249612 17.7633 -2.17166 -0.230496 -1.13298 3.41585
lowerback 9.7292 2.59258 -1.77805
upperback 5.5689 3.28913 0.0500787
thorax 0.232345 1.60566 0.739845
lowerneck -0.542297 -5.14715 -6.43862
upperneck 17.3989 -6.94909 2.4983
head 5.6597 -3.60877 1.48473
rclavicle -4.87022e-015 1.98785e-015
rhumerus 17.1991 16.3051 -65.819
rradius 77.411
rwrist 19.579
rhand -33.0084 24.1755
rfingers 7.12502
rthumb -6.22236 -5.71307
lclavicle -4.87022e-015 1.98785e-015
lhumerus 15.7004 -18.7684 68.4803
lradius 82.3142
lwrist -14.0242
lhand -28.3774 27.7441
lfingers 7.12502
lthumb -1.75045 57.7167
rfemur -16.9089 2.46748 15.5954
rtibia 33.8614
rfoot -16.4935 -11.7156
rtoes -7.89252
lfemur -15.2121 -0.206336 -21.3376
ltibia 31.4403
lfoot -15.1092 8.14306
ltoes -16.9604
3167
root -0.245511 17.7625 -2.1722 -0.217924 -1.19067 3.41638
lowerback 9.71077 2.60544 -1.7906
upperback 5.58013 3.30561 0.0566316
thorax 0.252596 1.61328 0.753185
lowerneck -0.554599 -5.16743 -6.40003
upperneck 17.4395 -6.96775 2.4282
head 5.67175 -3.61982 1.45472
rclavicle 9.34288e-015 -1.31198e-014
rhumerus 17.0512 16.3707 -65.8137
rradius 77.481
rwrist 19.5306
rhand -33.0074 24.1149
rfingers 7.12502
rthumb -6.22133 -5.77374
lclavicle 9.34288e-015 -1.31198e-014
lhumerus 15.6226 -18.9801 68.3762
lradius 82.4262
lwrist -13.8421
lhand -28.4119 27.7999
lfingers 7.12502
lthumb -1.78371 57.7722
rfemur -16.9505 2.50664 15.5771
rtibia 33.8654
rfoot -16.4676 -11.6893
rtoes -7.88111
lfemur -15.2639 -0.121269 -21.3684
ltibia 31.4901
lfoot -15.06 8.26194
ltoes -17.205
